<?xml version="1.0" encoding="utf-8"?>
<svg id="master-artboard" viewBox="0 0 700 700" version="1.1" xmlns="http://www.w3.org/2000/svg" x="0px" y="0px" style="enable-background:new 0 0 1400 980;" width="700px" height="700px"><rect id="ee-background" x="0" y="0" width="700" height="700" style="fill: white; fill-opacity: 0; pointer-events: none;"/><g transform="matrix(0.1974688321352005, 0, 0, 0.1784205436706543, 111.55044817108467, 318.02089952606514)"><g transform="translate(0.000000,575.000000) scale(0.100000,-0.100000)" fill="#000000" stroke="none">
<path d="M2558 5617 c-201 -136 -289 -209 -436 -362 -152 -158 -266 -329 -326&#10;-490 -60 -158 -74 -369 -35 -526 38 -152 170 -399 214 -399 53 0 102 24 150&#10;73 56 57 75 105 75 184 l0 50 -59 16 c-84 23 -139 69 -180 149 -27 53 -33 78&#10;-34 129 -2 84 21 131 80 166 40 23 51 25 121 20 42 -3 87 -9 100 -12 19 -6 22&#10;-4 22 22 0 87 56 182 134 228 54 31 183 65 251 65 68 0 197 -34 251 -65 78&#10;-46 134 -141 134 -228 0 -26 3 -28 23 -22 12 3 57 9 99 12 70 5 81 3 121 -20&#10;58 -34 81 -81 80 -165 0 -52 -7 -76 -34 -130 -41 -80 -96 -126 -180 -149 l-59&#10;-16 0 -52 c0 -70 24 -136 66 -179 47 -49 89 -68 147 -70 l50 -1 69 84 c80 100&#10;159 251 189 366 27 103 36 271 20 372 -23 143 -93 320 -179 453 l-36 55 -7&#10;-46 c-14 -91 -57 -149 -120 -161 -25 -4 -27 -1 -63 110 -43 130 -109 266 -161&#10;335 l-37 48 -31 -47 c-127 -192 -301 -249 -404 -131 -60 68 -52 177 21 315 19&#10;34 32 62 31 62 -2 0 -32 -19 -67 -43z m-328 -587 c27 -27 25 -55 -6 -79 -25&#10;-19 -45 -19 -71 2 -21 16 -15 64 9 81 30 21 44 20 68 -4z m1198 -266 c4 -27&#10;-21 -47 -48 -39 -20 6 -28 44 -13 59 15 15 58 1 61 -20z"/>
<path d="M1415 4519 c-225 -240 -367 -510 -436 -827 -15 -72 -22 -148 -26&#10;-295 l-6 -198 -34 33 c-54 52 -66 82 -60 152 3 34 9 73 12 88 7 25 -11 46&#10;-210 250 -119 123 -228 227 -241 233 -51 19 -90 -16 -192 -175 -107 -166 -136&#10;-222 -127 -250 6 -19 484 -369 515 -377 9 -2 31 7 50 21 52 38 97 57 123 51&#10;12 -3 61 -43 109 -88 80 -76 86 -85 93 -132 11 -78 80 -280 134 -390 222 -453&#10;649 -790 1141 -899 518 -114 1046 14 1451 353 277 231 470 544 554 896 l24&#10;100 88 82 c80 75 90 81 118 75 16 -4 66 -7 110 -7 88 1 157 24 261 86 82 50&#10;218 181 245 236 74 152 -29 327 -209 358 -50 8 -147 -15 -200 -49 -87 -55&#10;-218 -212 -269 -322 -21 -46 -28 -79 -31 -149 -5 -87 -6 -91 -45 -137 -22 -27&#10;-43 -48 -46 -48 -3 0 -6 84 -6 188 -1 211 -13 295 -71 482 -62 199 -164 391&#10;-296 555 -28 35 -54 62 -58 60 -4 -3 -11 -26 -15 -52 -19 -125 -103 -325 -192&#10;-452 -25 -36 -42 -71 -40 -80 3 -9 21 -52 41 -96 68 -155 81 -226 80 -440 0&#10;-174 -2 -198 -27 -290 -53 -197 -169 -389 -319 -531 -452 -427 -1159 -413&#10;-1589 33 -126 131 -202 252 -262 420 -57 157 -76 383 -47 553 16 99 61 239&#10;104 322 l34 67 -39 75 c-79 151 -127 314 -137 470 l-7 98 -50 -53z m-862 -825&#10;c130 -138 150 -165 127 -179 -10 -6 -300 261 -300 277 0 14 20 48 28 48 4 0&#10;70 -65 145 -146z m882 89 c-3 -10 -16 -56 -27 -103 -11 -47 -22 -91 -25 -99&#10;-2 -10 -30 12 -83 64 -44 44 -80 83 -80 87 0 4 39 19 88 34 48 14 92 27 97 29&#10;26 9 37 4 30 -12z m2528 -20 c42 -13 77 -27 77 -31 0 -4 -36 -43 -80 -87 -53&#10;-52 -81 -74 -83 -64 -3 8 -15 52 -27 99 -12 47 -24 93 -27 102 -5 15 -1 17 28&#10;12 19 -4 69 -18 112 -31z m-3447 -190 c150 -142 186 -188 148 -188 -16 0 -348&#10;285 -352 302 -6 22 6 43 23 43 9 0 90 -71 181 -157z m3604 2 c-35 -36 -69 -65&#10;-74 -65 -6 0 19 29 54 65 35 36 69 65 74 65 6 0 -19 -29 -54 -65z m-3686 -86&#10;c135 -120 164 -156 123 -153 -12 1 -165 111 -187 134 -3 3 -33 28 -67 54 -35&#10;27 -63 51 -63 53 0 11 26 43 36 43 6 0 77 -59 158 -131z m932 -129 c0 -66 -3&#10;-120 -7 -120 -11 0 -183 107 -186 116 -2 6 180 124 192 124 1 0 2 -54 1 -120z&#10;m2681 29 c25 -17 41 -35 36 -40 -12 -12 -177 -109 -185 -109 -4 0 -7 54 -7&#10;120 l0 120 56 -30 c30 -17 75 -44 100 -61z m-2536 -621 c17 -35 45 -82 61&#10;-105 l29 -43 -121 0 c-66 0 -120 3 -120 8 0 11 111 202 117 202 2 0 17 -28 34&#10;-62z m2321 -18 c24 -41 49 -87 56 -102 l12 -28 -120 0 -120 0 34 53 c18 28 45&#10;76 60 105 15 30 29 52 31 50 2 -1 23 -37 47 -78z m-2022 -373 c-7 -9 -210 -61&#10;-215 -55 -4 4 28 139 46 195 l10 32 83 -82 c45 -45 79 -85 76 -90z m1819 106&#10;c25 -89 40 -163 32 -163 -13 0 -168 39 -194 49 l-27 11 82 84 c46 46 84 85 85&#10;85 1 1 11 -29 22 -66z m-1306 -351 l98 -26 -83 -83 c-45 -45 -85 -79 -89 -75&#10;-10 10 -59 181 -59 205 0 14 4 17 18 12 9 -5 61 -19 115 -33z m723 -74 c-15&#10;-50 -30 -97 -34 -104 -6 -10 -31 9 -91 70 l-84 84 54 11 c30 6 81 20 114 30&#10;33 9 62 14 63 9 2 -5 -8 -49 -22 -100z m-296 35 c0 -7 -83 -151 -100 -173 -13&#10;-17 -22 -22 -29 -15 -12 12 -111 176 -111 184 0 3 54 6 120 6 66 0 120 -1 120&#10;-2z m-330 -218 c-36 -36 -69 -65 -74 -65 -6 0 21 31 59 70 38 38 71 67 74 64&#10;3 -2 -24 -34 -59 -69z"/>
<path d="M2115 4450 c-4 -7 -3 -16 3 -22 14 -14 45 -2 40 15 -6 16 -34 21 -43&#10;7z"/>
<path d="M2204 4305 c-33 -50 20 -104 71 -71 30 20 33 56 7 79 -27 24 -59 21&#10;-78 -8z"/>
<path d="M2994 4249 c-10 -17 13 -36 27 -22 12 12 4 33 -11 33 -5 0 -12 -5&#10;-16 -11z"/>
<path d="M2447 4214 c-14 -15 -6 -34 14 -34 14 0 19 5 17 17 -3 18 -20 27 -31&#10;17z"/>
<path d="M2800 4205 c-6 -8 -9 -23 -5 -35 10 -31 59 -24 63 9 6 37 -34 55 -58&#10;26z"/>
<path d="M2900 4080 c0 -5 5 -10 10 -10 6 0 10 5 10 10 0 6 -4 10 -10 10 -5 0&#10;-10 -4 -10 -10z"/>
<path d="M2563 4014 c-15 -24 -15 -29 -2 -53 28 -49 109 -32 109 24 0 54 -77&#10;75 -107 29z"/>
<path d="M2058 3690 c-108 -4 -201 -11 -207 -15 -6 -3 -11 -16 -11 -27 0 -19&#10;-4 -20 -47 -14 -144 21 -151 21 -158 -7 -10 -40 9 -64 57 -72 24 -3 57 -11 75&#10;-16 32 -10 90 -67 113 -110 7 -12 27 -187 45 -393 35 -405 36 -413 102 -463&#10;l36 -28 555 -3 554 -2 42 24 c78 46 82 59 116 457 17 195 33 366 36 382 3 15&#10;28 51 55 81 45 49 55 55 110 65 34 6 67 16 75 22 17 14 19 76 2 81 -7 3 -44&#10;-1 -82 -8 -103 -19 -113 -18 -112 9 1 19 -5 23 -54 29 -88 11 -1086 17 -1302&#10;8z"/>
<path d="M1265 1183 c0 -345 -10 -419 -66 -507 -54 -86 -153 -101 -216 -32&#10;-65 71 -85 230 -70 581 4 104 5 196 2 204 -7 18 -123 10 -183 -14 -45 -18 -52&#10;-38 -30 -78 9 -15 15 -109 19 -302 6 -235 10 -292 26 -352 56 -201 173 -282&#10;366 -255 176 25 274 128 319 337 17 78 20 127 19 373 0 156 -3 293 -7 304 -8&#10;27 -63 48 -126 48 l-53 0 0 -307z"/>
<path d="M2328 1334 c-62 -33 -73 -123 -21 -164 33 -25 69 -25 111 0 110 67&#10;23 226 -90 164z"/>
<path d="M3017 1194 c-39 -12 -49 -20 -53 -42 -5 -25 -12 -29 -65 -39 -77 -15&#10;-176 -61 -226 -106 -21 -20 -52 -62 -69 -94 -26 -53 -29 -67 -29 -158 0 -88 3&#10;-107 25 -149 46 -90 145 -143 286 -153 l72 -6 4 -146 c5 -160 20 -221 56 -221&#10;25 0 100 27 129 45 l23 15 -22 42 c-18 33 -23 64 -26 155 -4 107 -3 117 21&#10;161 14 26 28 62 32 80 6 31 5 32 -26 32 l-32 0 4 298 4 297 -30 2 c-16 1 -52&#10;-5 -78 -13z m-57 -410 l0 -186 -47 7 c-66 10 -103 27 -138 64 -24 26 -30 41&#10;-33 94 -3 55 0 67 26 108 32 50 113 99 164 99 l28 0 0 -186z"/>
<path d="M3710 1127 c-53 -19 -60 -42 -60 -220 0 -171 -6 -197 -56 -236 -28&#10;-22 -74 -27 -104 -11 -32 17 -40 67 -40 251 0 116 -4 180 -11 184 -20 13 -120&#10;-6 -141 -27 -19 -19 -19 -30 -15 -241 4 -248 11 -279 67 -338 65 -69 161 -62&#10;250 18 l48 43 7 -42 c19 -112 41 -126 130 -84 72 33 81 47 58 88 -16 30 -18&#10;64 -20 328 l-1 295 -39 2 c-21 1 -54 -3 -73 -10z"/>
<path d="M1685 1120 c-68 -17 -85 -29 -86 -57 -1 -16 -2 -164 -3 -330 -1 -342&#10;-9 -312 82 -292 89 19 86 12 92 227 5 185 6 191 29 216 14 15 42 31 62 38 51&#10;15 84 -6 100 -64 12 -45 15 -342 4 -401 -6 -32 -5 -35 22 -40 38 -7 134 9 145&#10;25 5 7 7 112 5 233 -4 189 -7 229 -25 285 -12 36 -29 76 -38 89 -20 28 -88 61&#10;-129 61 -37 0 -123 -40 -149 -69 -29 -33 -38 -25 -34 29 4 62 -6 68 -77 50z"/>
<path d="M4158 1094 c-62 -19 -149 -99 -183 -169 -70 -142 -40 -340 65 -426&#10;54 -46 125 -62 244 -57 148 7 172 24 183 137 5 44 3 53 -8 48 -8 -3 -38 -13&#10;-68 -23 -63 -19 -174 -15 -197 8 -13 13 -5 19 58 51 114 56 197 148 218 240&#10;19 88 -14 162 -89 193 -43 18 -162 17 -223 -2z m140 -159 c2 -29 -3 -50 -20&#10;-75 -27 -39 -101 -95 -141 -105 -26 -7 -27 -6 -27 37 0 57 41 140 83 167 20&#10;14 45 20 67 19 33 -3 35 -5 38 -43z"/>
<path d="M2342 1060 c-19 -4 -39 -13 -45 -19 -9 -9 -12 -91 -12 -284 1 -307 8&#10;-349 59 -355 31 -4 135 43 142 63 3 7 -3 28 -13 47 -16 29 -19 66 -23 293 l-5&#10;260 -35 2 c-19 1 -50 -2 -68 -7z"/>
<path d="M1637 272 c-11 -12 -17 -36 -17 -69 0 -57 20 -83 63 -83 27 0 67 30&#10;67 50 0 16 -32 11 -45 -7 -22 -30 -45 -9 -45 42 0 52 23 72 46 40 8 -11 19&#10;-15 30 -11 15 6 15 9 1 29 -19 30 -77 35 -100 9z"/>
<path d="M1792 213 c3 -75 4 -78 31 -87 17 -6 37 -6 55 0 26 9 27 12 30 87 2&#10;63 0 77 -12 77 -12 0 -16 -16 -18 -67 -3 -62 -5 -68 -25 -71 -13 -2 -23 0 -24&#10;5 -1 4 -2 33 -4 63 -3 72 -3 70 -20 70 -13 0 -15 -13 -13 -77z"/>
<path d="M1960 206 l0 -86 49 0 c68 0 89 30 22 32 l-30 1 -3 66 c-2 53 -6 66&#10;-20 69 -16 3 -18 -6 -18 -82z"/>
<path d="M2070 275 c0 -8 9 -15 20 -15 17 0 19 -8 22 -67 2 -53 6 -68 18 -68&#10;12 0 16 15 18 68 3 59 5 67 22 67 11 0 20 7 20 15 0 12 -13 15 -60 15 -47 0&#10;-60 -3 -60 -15z"/>
<path d="M2227 283 c-14 -13 -7 -118 9 -141 22 -32 78 -30 99 2 23 34 17 139&#10;-7 144 -14 3 -18 -7 -20 -65 -3 -60 -5 -68 -23 -68 -18 0 -20 8 -23 68 -3 63&#10;-14 82 -35 60z"/>
<path d="M2397 283 c-2 -5 -3 -42 -3 -83 1 -63 4 -75 19 -78 13 -3 17 3 17 27&#10;0 40 24 41 40 1 12 -28 29 -38 43 -24 3 4 0 19 -8 34 -13 24 -13 30 0 40 20&#10;16 19 54 -1 74 -16 16 -99 23 -107 9z m81 -45 c3 -13 -3 -18 -22 -18 -20 0&#10;-26 5 -26 21 0 15 5 20 22 17 13 -2 24 -11 26 -20z"/>
<path d="M2576 212 c-14 -42 -26 -81 -26 -85 0 -15 30 -6 40 13 6 11 19 20 30&#10;20 11 0 24 -9 30 -20 10 -19 40 -28 40 -12 0 4 -10 37 -21 73 -39 115 -57 117&#10;-93 11z m54 -2 c0 -11 -4 -20 -10 -20 -5 0 -10 9 -10 20 0 11 5 20 10 20 6 0&#10;10 -9 10 -20z"/>
<path d="M2730 205 l0 -85 50 0 c38 0 50 4 50 15 0 10 -10 15 -30 15 -28 0&#10;-30 2 -31 43 -1 23 -1 46 0 51 4 18 -11 46 -25 46 -11 0 -14 -18 -14 -85z"/>
<path d="M3350 205 c0 -69 3 -85 15 -85 9 0 15 9 15 24 0 13 6 29 13 35 11 8&#10;17 3 30 -24 9 -19 23 -35 32 -35 20 0 19 13 -5 61 l-21 40 21 28 c24 34 25 41&#10;6 41 -8 0 -28 -17 -45 -37 l-30 -38 -1 38 c0 26 -4 37 -15 37 -12 0 -15 -16&#10;-15 -85z"/>
<path d="M3514 277 c-3 -8 -4 -45 -2 -83 2 -53 6 -69 18 -69 12 0 16 17 18 83&#10;2 69 0 82 -13 82 -9 0 -18 -6 -21 -13z"/>
<path d="M3587 283 c-13 -12 -7 -22 16 -25 20 -3 22 -9 25 -70 2 -50 7 -68 17&#10;-68 10 0 15 18 17 68 3 61 5 67 26 70 12 2 22 10 22 18 0 10 -14 14 -58 14&#10;-32 0 -62 -3 -65 -7z"/>
<path d="M3758 279 c-24 -14 -25 -120 -2 -143 30 -31 104 -13 104 24 0 25 -18&#10;26 -36 3 -28 -38 -64 16 -50 73 7 27 43 33 52 9 4 -8 12 -15 20 -15 17 0 18&#10;32 2 48 -15 15 -66 15 -90 1z"/>
<path d="M3910 205 c0 -69 3 -85 15 -85 10 0 15 11 15 35 0 32 2 35 29 35 26&#10;0 30 -4 33 -32 2 -21 8 -33 18 -33 12 0 15 16 15 80 0 68 -3 80 -17 83 -15 3&#10;-18 -4 -18 -33 0 -34 -2 -36 -27 -33 -23 2 -29 8 -31 36 -2 20 -9 32 -18 32&#10;-11 0 -14 -18 -14 -85z"/>
<path d="M4090 205 l0 -85 55 0 c42 0 55 3 55 15 0 10 -10 15 -33 15 -19 0&#10;-36 3 -40 6 -13 14 7 34 34 34 19 0 29 5 29 15 0 10 -10 15 -30 15 -23 0 -30&#10;4 -30 20 0 16 7 20 35 20 24 0 35 5 35 15 0 12 -13 15 -55 15 l-55 0 0 -85z"/>
<path d="M4250 204 c0 -64 3 -85 13 -82 6 3 14 27 17 54 l5 49 28 -53 c20 -37&#10;33 -52 45 -50 14 3 17 16 17 83 0 64 -3 80 -15 80 -10 0 -17 -14 -20 -45 l-6&#10;-45 -24 48 c-15 30 -31 47 -42 47 -16 0 -18 -10 -18 -86z"/>
</g></g></svg>